<?xml version="1.0" encoding="UTF-8" standalone="no"?>
<!-- Created with Inkscape (http://www.inkscape.org/) -->

<svg
   width="40"
   height="40"
   viewBox="0 0 10.583333 10.583333"
   version="1.1"
   id="svg1"
   sodipodi:docname="pluginIcon.svg"
   inkscape:version="1.4 (86a8ad7, 2024-10-11)"
   xmlns:inkscape="http://www.inkscape.org/namespaces/inkscape"
   xmlns:sodipodi="http://sodipodi.sourceforge.net/DTD/sodipodi-0.dtd"
   xmlns="http://www.w3.org/2000/svg"
   xmlns:svg="http://www.w3.org/2000/svg">
  <sodipodi:namedview
     id="namedview1"
     pagecolor="#ffffff"
     bordercolor="#000000"
     borderopacity="0.25"
     inkscape:showpageshadow="2"
     inkscape:pageopacity="0.0"
     inkscape:pagecheckerboard="0"
     inkscape:deskcolor="#d1d1d1"
     showgrid="false"
     inkscape:zoom="16.3125"
     inkscape:cx="29.762452"
     inkscape:cy="11.984674"
     inkscape:window-width="3840"
     inkscape:window-height="1529"
     inkscape:window-x="-8"
     inkscape:window-y="-8"
     inkscape:window-maximized="1"
     inkscape:current-layer="layer1" />
  <defs
     id="defs1" />
  <g
     id="layer1">
    <rect
       style="fill:#2e3436;fill-opacity:1;stroke:none;stroke-width:0.3;stroke-linecap:round;stroke-linejoin:round;stroke-miterlimit:28.8;stroke-opacity:1"
       id="rect2"
       width="7.951293"
       height="7.951293"
       x="1.3160201"
       y="1.3160201"
       ry="1.3086207" />
    <path
       d="m 4.197997,3.1043273 c -0.4528476,0 -0.8202522,0.3674045 -0.8202522,0.8202522 v 2.7341741 c 0,0.4528477 0.3674046,0.8202521 0.8202522,0.8202521 h 2.460757 0.2734171 c 0.1512341,0 0.2734171,-0.1221832 0.2734171,-0.2734171 0,-0.1512342 -0.122183,-0.2734173 -0.2734171,-0.2734173 V 6.3853364 c 0.1512341,0 0.2734171,-0.1221832 0.2734171,-0.2734176 v -2.734174 c 0,-0.1512343 -0.122183,-0.2734176 -0.2734171,-0.2734176 H 6.658754 Z m 0,3.2810092 H 6.3853368 V 6.9321712 H 4.197997 c -0.1512342,0 -0.2734172,-0.1221833 -0.2734172,-0.2734176 0,-0.1512339 0.122183,-0.2734172 0.2734172,-0.2734171 z M 4.471415,4.3347054 c 0,-0.07519 0.06152,-0.1367083 0.1367081,-0.1367083 h 1.6405047 c 0.075191,0 0.136709,0.061519 0.136709,0.1367083 0,0.075191 -0.06152,0.1367089 -0.136709,0.1367089 H 4.6081231 c -0.075191,0 -0.1367081,-0.061519 -0.1367081,-0.1367089 z m 0.1367081,0.4101265 h 1.6405047 c 0.075191,0 0.136709,0.061519 0.136709,0.1367087 0,0.07519 -0.06152,0.1367089 -0.136709,0.1367089 H 4.6081231 c -0.075191,0 -0.1367081,-0.061519 -0.1367081,-0.1367089 0,-0.07519 0.06152,-0.1367087 0.1367081,-0.1367087 z"
       id="path1"
       style="fill:#00b8f8;fill-opacity:1;stroke-width:0.00854431" />
  </g>
</svg>
